<?xml version="1.0" encoding="UTF-8" standalone="no"?>
<!-- Created with Inkscape (http://www.inkscape.org/) -->

<svg
        version="1.1"
        id="svg1"
        width="1024"
        height="1024"
        viewBox="0 0 1024 1024"
        sodipodi:docname="TimeLocker-Logo-Icon-Color-White.svg"
        inkscape:version="1.4 (e7c3feb100, 2024-10-09)"
        inkscape:export-filename="TimeLocker-Logo-Color-White.png"
        inkscape:export-xdpi="96"
        inkscape:export-ydpi="96"
        xmlns:inkscape="http://www.inkscape.org/namespaces/inkscape"
        xmlns:sodipodi="http://sodipodi.sourceforge.net/DTD/sodipodi-0.dtd"
        xmlns="http://www.w3.org/2000/svg"
        xmlns:svg="http://www.w3.org/2000/svg">
  <defs
          id="defs1"/>
  <sodipodi:namedview
          id="namedview1"
          pagecolor="#ffffff"
          bordercolor="#000000"
          borderopacity="0.25"
          inkscape:showpageshadow="2"
          inkscape:pageopacity="0.0"
          inkscape:pagecheckerboard="0"
          inkscape:deskcolor="#d1d1d1"
          inkscape:zoom="0.55933251"
          inkscape:cx="449.64309"
          inkscape:cy="548.86851"
          inkscape:window-width="1920"
          inkscape:window-height="1012"
          inkscape:window-x="2192"
          inkscape:window-y="0"
          inkscape:window-maximized="1"
          inkscape:current-layer="g1"/>
  <g
          inkscape:groupmode="layer"
          inkscape:label="Image"
          id="g1">
    <g
            id="g29"
            transform="matrix(1.6125347,0,0,1.6125347,-593.68508,-129.78321)">
      <path
              style="fill:#f5911c"
              d="m 856.45926,289.69868 -6.5,-1.37765 -5.64582,-2.12796 -5.64582,-2.12795 -5.85418,-3.80246 -5.85418,-3.80247 -6.70994,-7.14094 -6.70994,-7.14094 -4.06374,-8.39569 -4.06375,-8.39569 -1.47632,-7.716 -1.47631,-7.716 0.0174,-6.16204 0.0174,-6.16203 1.46462,-7 1.46463,-7 4.17355,-8.46615 4.17356,-8.46615 7.59882,-7.59882 7.59882,-7.59882 8.20876,-4.10861 8.20875,-4.10862 7.68967,-1.71078 7.68966,-1.71079 10.59721,0.53209 10.59722,0.53208 7.47899,2.73143 7.47898,2.73142 6.24539,3.94432 6.2454,3.94432 6.5892,7.11696 6.58921,7.11695 3.83409,8.05959 3.83408,8.05958 1.33974,5.5 1.33974,5.5 -0.0246,10.5 -0.0246,10.5 -2.29434,7.5 -2.29434,7.5 -3.57335,6.5 -3.57334,6.5 -7.59509,7.50023 -7.59509,7.50023 -6,3.15207 -6,3.15208 -6.93261,2.12156 -6.9326,2.12157 -8.5674,0.44886 -8.56739,0.44887 z m 30.18298,-24.78914 7.31702,-3.50702 4.66218,-4.64811 4.66217,-4.64812 2.4909,-4.25039 2.4909,-4.25039 1.71199,-5.88905 1.71199,-5.88904 -0.41192,-8.61558 -0.41191,-8.61558 -3.1546,-6.74123 -3.1546,-6.74122 -5.22391,-5.52352 -5.22392,-5.52351 -7.52277,-3.71796 -7.52278,-3.71796 h -11.60372 -11.60373 l -7.53867,3.72582 -7.53867,3.72581 -4.72449,5.05086 -4.72448,5.05085 -2.97024,6.34727 -2.97025,6.34726 -0.98657,6.12607 -0.98658,6.12606 0.98658,6.12607 0.98657,6.12606 2.97025,6.34727 2.97024,6.34726 4.78061,5.11087 4.78062,5.11086 4.3321,2.53878 4.3321,2.53878 5.70231,1.88749 5.7023,1.88749 9.18298,-0.36761 9.18298,-0.36761 z m -22.09283,-25.65216 -2.40985,-0.67412 -2.09015,-2.80145 -2.09015,-2.80144 v -16.40294 -16.40294 l 2.75,-2.74908 2.75,-2.74909 h 4.10613 4.10613 l 2.39387,2.78303 2.39387,2.78304 v 10.44424 10.44423 h 3.03212 3.03212 l 3.38739,1.41535 3.38739,1.41534 1.08049,2.01891 1.08049,2.01892 v 2.63148 2.63149 l -1.02965,1.9239 -1.02964,1.92391 -2.9207,1.51035 -2.92069,1.51035 -8.29966,-0.0997 -8.29966,-0.0997 z"
              id="path31"/>
      <path
              style="fill:#0446ae"
              d="m 580.95926,635.18551 -2,-0.81859 -2,-2.22301 -2,-2.22302 v -4.47704 -4.47704 l 3.26578,-2.91798 3.26577,-2.91797 h 17.41333 17.41332 l 1.04845,-5.25 1.04844,-5.25 2.52246,-14.14952 2.52245,-14.14952 v -1.07094 -1.07094 l -77.25,-0.27954 -77.25,-0.27954 -6.70071,-3.17439 -6.70071,-3.1744 -4.41021,-4.4102 -4.4102,-4.4102 -2.60205,-4.44006 -2.60204,-4.44006 -1.55233,-6.05932 -1.55232,-6.05931 0.26528,-156.91603 0.26529,-156.91603 3.13821,-6.62337 3.1382,-6.62338 3.8046,-4.21124 3.8046,-4.21123 4.32412,-2.97507 4.32411,-2.97507 5.63963,-1.94032 5.63963,-1.94032 h 158.84345 158.84345 v 0.4349 0.4349 l -1.13378,2.8151 -1.13378,2.8151 -2.1865,7.36791 -2.18649,7.36792 -154.42973,0.1796 -154.42972,0.1796 -3.78468,1.83288 -3.78469,1.83289 -2.87699,3.49029 -2.87699,3.49029 -1.08833,4.32213 -1.08832,4.32213 v 136.05718 136.05718 h 224.5 224.5 V 402.65743 300.184 l 5.02304,-3.38272 5.02305,-3.38271 4.90478,-4.64386 4.90479,-4.64385 h 0.88255 0.88254 l 0.24308,124.75 0.24307,124.75 -1.07416,5.49567 -1.07415,5.49567 -2.92243,6.24508 -2.92243,6.24509 -4.91816,4.91816 -4.91816,4.91816 -4.38871,2.2436 -4.3887,2.2436 -5,1.33562 -5,1.33562 -72.85699,0.0119 -72.85699,0.0119 0.47418,1.25 0.47417,1.25 3.35742,19.25 3.35742,19.25 h 16.82505 16.82506 l 2.9933,1.5479 2.9933,1.5479 0.95704,2.5172 0.95704,2.5172 v 2.38785 2.38785 l -1.08521,2.38178 -1.08522,2.38178 -2.81908,1.66527 -2.81908,1.66527 -103.3457,-0.0634 -103.34571,-0.0634 z m 153.5,-21.35292 v -1.29828 l -3.5,-18.83255 -3.5,-18.83255 v -0.38027 -0.38026 l -41.23498,0.26109 -41.23498,0.26109 -3.08512,17 -3.08512,17 -0.6549,3.25 -0.6549,3.25 h 48.475 48.475 z m 161.76847,-62.24945 3.70423,-1.54773 2.39557,-2.20227 2.39557,-2.20228 1.84612,-4 1.84612,-4 0.022,-5.75 0.022,-5.75 H 683.82235 459.18544 l 0.51856,6.4602 0.51856,6.4602 2.57737,4.39794 2.57736,4.39794 2.70456,1.77209 2.70455,1.77209 2.58643,0.78382 2.58643,0.78382 208.28212,0.0859 208.28212,0.086 z m -275.65615,-75.03283 -5.38767,-1.44892 -6.09933,-3.23527 -6.09934,-3.23526 -5.51299,-5.5229 -5.51299,-5.52289 -2.71834,-5.47711 -2.71834,-5.4771 -1.53166,-5.9601 -1.53166,-5.96009 V 390.5989 346.48714 l 1.65538,-4.92814 1.65539,-4.92814 2.87202,-4.22001 2.87203,-4.22002 3.27765,-2.49998 3.27764,-2.49998 4.60181,-2.0356 4.60182,-2.0356 6.09313,-0.63686 6.09313,-0.63686 0.0174,-10.10754 0.0174,-10.10755 1.46462,-7 1.46463,-7 3.97228,-8 3.97228,-8 4.29573,-5.15549 4.29573,-5.15549 4.74722,-3.90077 4.74722,-3.90077 6.49586,-3.23288 6.49586,-3.23288 7.66688,-1.96086 7.66688,-1.96086 8.09004,0.0174 8.09004,0.0174 7,1.45675 7,1.45674 8.5,4.25418 8.5,4.25417 7.52874,7.52172 7.52875,7.52171 4.1349,8 4.1349,8 1.66808,6.45972 1.66807,6.45972 0.16828,11.66849 0.16828,11.66848 6.11214,0.63552 6.11215,0.63552 4.88785,1.66217 4.88786,1.66217 5.58737,5.58148 5.58737,5.58148 2.16263,5.78014 2.16263,5.78014 v 44.75239 44.75239 l -1.53291,5.88523 -1.53291,5.88524 -2.69475,5.07486 -2.69475,5.07486 -6.53442,6.5 -6.53443,6.5 -5.65887,2.74212 -5.65888,2.74212 -5.78914,1.50788 -5.78914,1.50788 -59.5399,-0.0658 -59.5399,-0.0658 z m 129.88768,-22.01552 4.5,-2.09608 4.14654,-4.16812 4.14655,-4.16811 2.35345,-4.73581 2.35346,-4.73581 0.30035,-42.92133 0.30035,-42.92134 -1.18817,-2.86849 -1.18817,-2.86849 -2.08468,-1.46017 -2.08469,-1.46018 h -75.31268 -75.31268 l -2.38999,1.56599 -2.38999,1.56598 -1.07483,3.08324 -1.07482,3.08324 v 39.80156 39.80155 l 1.06176,4.95083 1.06177,4.95083 2.83306,4.46728 2.83307,4.46728 3.68762,2.81269 3.68763,2.81269 5.16754,1.80181 5.16755,1.80182 58,-0.2334 58,-0.23339 z m -71.07692,-24.327 -2.92308,-2.92308 -0.038,-8.82692 -0.0379,-8.82693 -3.81891,-2.63858 -3.81891,-2.63859 -2.25352,-4.65514 -2.25351,-4.65515 0.39063,-6.91317 0.39063,-6.91317 2.97593,-4.2931 2.97594,-4.2931 5.42312,-2.75 5.42313,-2.75 4.57068,0.01 4.57069,0.01 5,2.35789 5,2.35788 2.20227,2.396 2.20227,2.39599 1.69196,3.98635 1.69196,3.98635 0.0141,5.5 0.0141,5.5 -2.12933,4.15328 -2.12933,4.15327 -3.75094,3.09185 -3.75095,3.09184 -0.25807,8.75488 -0.25806,8.75488 -3.03579,2.75 -3.03578,2.75 h -4.06115 -4.06115 z m 52.07692,-119.94044 v -7.86351 l -0.99879,-5.38649 -0.99879,-5.38649 -3.51039,-7.15804 -3.51039,-7.15805 -5.45464,-4.98523 -5.45463,-4.98523 -4.54212,-2.1988 -4.54211,-2.1988 -5.24407,-1.39605 -5.24407,-1.39606 h -5.5 -5.5 l -5.24407,1.39606 -5.24407,1.39605 -4.75593,2.28215 -4.75593,2.28214 -6.07182,6.05993 -6.07182,6.05993 -2.64209,5.61178 -2.64208,5.61178 -1.01165,4.38822 -1.01165,4.38822 -0.0244,9.25 -0.0245,9.25 h 45 45 z"
              id="path30"/>
    </g>
  </g>
</svg>
