<?xml version="1.0" encoding="UTF-8" standalone="no"?>
<!DOCTYPE svg PUBLIC "-//W3C//DTD SVG 1.1//EN"
 "http://www.w3.org/Graphics/SVG/1.1/DTD/svg11.dtd">
<!-- Generated by graphviz version 2.43.0 (0) -->
<!-- Title: INFRA Pages: 1 -->
<svg width="487pt" height="80pt"
 viewBox="0.00 0.00 487.00 80.00" xmlns="http://www.w3.org/2000/svg" xmlns:xlink="http://www.w3.org/1999/xlink">
<g id="graph0" class="graph" transform="scale(1 1) rotate(0) translate(4 76)">
<title>INFRA</title>
<polygon fill="white" stroke="transparent" points="-4,4 -4,-76 483,-76 483,4 -4,4"/>
<!-- B2ResticRepository -->
<g id="node1" class="node">
<title>B2ResticRepository</title>
<path fill="#b7e0ff" stroke="black" stroke-width="2" d="M123,-72C123,-72 12,-72 12,-72 6,-72 0,-66 0,-60 0,-60 0,-12 0,-12 0,-6 6,0 12,0 12,0 123,0 123,0 129,0 135,-6 135,-12 135,-12 135,-60 135,-60 135,-66 129,-72 123,-72"/>
<text text-anchor="middle" x="67.5" y="-32.3" font-family="Arial" font-size="14.00">B2ResticRepository</text>
</g>
<!-- S3ResticRepository -->
<g id="node2" class="node">
<title>S3ResticRepository</title>
<path fill="#b7e0ff" stroke="black" stroke-width="2" d="M276,-72C276,-72 165,-72 165,-72 159,-72 153,-66 153,-60 153,-60 153,-12 153,-12 153,-6 159,0 165,0 165,0 276,0 276,0 282,0 288,-6 288,-12 288,-12 288,-60 288,-60 288,-66 282,-72 276,-72"/>
<text text-anchor="middle" x="220.5" y="-32.3" font-family="Arial" font-size="14.00">S3ResticRepository</text>
</g>
<!-- LocalResticRepository -->
<g id="node3" class="node">
<title>LocalResticRepository</title>
<path fill="#b7e0ff" stroke="black" stroke-width="2" d="M467,-72C467,-72 318,-72 318,-72 312,-72 306,-66 306,-60 306,-60 306,-12 306,-12 306,-6 312,0 318,0 318,0 467,0 467,0 473,0 479,-6 479,-12 479,-12 479,-60 479,-60 479,-66 473,-72 467,-72"/>
<text text-anchor="middle" x="392.5" y="-32.3" font-family="Arial" font-size="14.00">LocalResticRepository</text>
</g>
</g>
</svg>
